<svg xmlns="http://www.w3.org/2000/svg" id="Layer_1" data-name="Layer 1" viewBox="0 0 530 530"><defs><style>.cls-1{fill:none;stroke:#fff;stroke-miterlimit:10;stroke-width:30px}.cls-2{fill:#fff}</style></defs><circle cx="265" cy="265" r="249.93" class="cls-1"/><path d="M286.71,419.6c6.82,32.65,32.83,49.15,64.53,49.15,40.68,0,61-16.5,61-48.63,0-27.7-13.76-44.81-65.95-59.31-73.16-20.58-99.56-45.2-99.56-91.79,0-52.36,43.68-85,100.43-85,78.15,0,102.42,45.81,105.93,79.2H407.21c-5.74-22-19.41-43.6-60.75-43.6-39.34,0-53.32,20.63-53.32,44,0,26.57,14,41.25,66.65,55.1C437.12,339.49,460,371.54,460,415c0,58.53-42.85,90.31-110.63,90.05-65.73-.26-104.12-36-109.37-85.4ZM336.3,547.68V152.32h28.53V547.68Z" class="cls-2" transform="translate(-84.97 -84.65)"/></svg>