<svg id="Layer_1" data-name="Layer 1" xmlns="http://www.w3.org/2000/svg" viewBox="0 0 628 530">
<defs>
<style>.cls-1,.cls-2{fill:none;stroke:#fff;stroke-miterlimit:10;}.cls-1{stroke-width:30px;}.cls-2{stroke-linecap:round;stroke-width:28px;}</style>
</defs>
<path class="cls-1" d="M104.76,398.11" transform="translate(-36 -84.65)"/>
<path class="cls-1" d="M594.62,298.45q-2.34-11.11-5.74-22.19C548.35,144.31,408.53,70.2,276.58,110.74A249.42,249.42,0,0,0,118.72,254.8" transform="translate(-36 -84.65)"/>
<path class="cls-1" d="M594.62,298.45" transform="translate(-36 -84.65)"/>
<path class="cls-1" d="M104.76,398.11A251.94,251.94,0,0,0,111.05,423C151.59,555,291.41,629.1,423.36,588.57A249.45,249.45,0,0,0,581.82,443" transform="translate(-36 -84.65)"/>
<path class="cls-2" d="M650,271.88c-49.81,29.44-71.44,44.06-160.75,47.55-106.36,4.16-183.4-79.24-285.29-79.24-70.19,0-108.68,13.58-154,45.28" transform="translate(-36 -84.65)"/>
<path class="cls-2" d="M650,342c-49.81,29.43-71.44,44.06-160.75,47.55C382.89,393.7,305.85,310.3,204,310.3c-70.19,0-108.68,13.59-154,45.29" transform="translate(-36 -84.65)"/>
<path class="cls-2" d="M650,412.28c-49.81,29.44-71.44,44.06-160.75,47.55C382.89,464,305.85,380.59,204,380.59c-70.19,0-108.68,13.58-154,45.28" transform="translate(-36 -84.65)"/>
</svg>